<svg id="Capa_1" data-name="Capa 1" xmlns="http://www.w3.org/2000/svg" xmlns:xlink="http://www.w3.org/1999/xlink" viewBox="0 0 395.52 512"><defs><style>.cls-1{fill:url(#linear-gradient);}.cls-2{fill:#969696;}.cls-3{fill:url(#linear-gradient-2);}.cls-4{fill:url(#linear-gradient-3);}.cls-5{fill:url(#linear-gradient-4);}.cls-6{fill:#afafaf;}</style><linearGradient id="linear-gradient" x1="157.63" y1="292.26" x2="354.37" y2="178.67" gradientUnits="userSpaceOnUse"><stop offset="0" stop-color="#57c7bd"/><stop offset="1" stop-color="#1c9abe"/></linearGradient><linearGradient id="linear-gradient-2" x1="33.82" y1="401.04" x2="483.71" y2="141.29" xlink:href="#linear-gradient"/><linearGradient id="linear-gradient-3" x1="228.85" y1="53.6" x2="282.66" y2="22.53" xlink:href="#linear-gradient"/><linearGradient id="linear-gradient-4" x1="103.32" y1="126.79" x2="119.69" y2="117.34" xlink:href="#linear-gradient"/></defs><title>digital-print</title><path class="cls-1" d="M256,349.08A113.62,113.62,0,1,0,142.39,235.46,113.74,113.74,0,0,0,256,349.08Zm0-212.21a98.6,98.6,0,1,1-98.59,98.59A98.71,98.71,0,0,1,256,136.87Z" transform="translate(-58.24 0)"/><path class="cls-2" d="M256,293.16a58.07,58.07,0,0,0,52.05-32.81,7.51,7.51,0,0,0-13.55-6.5,42.66,42.66,0,1,1-70.79-46.25,7.51,7.51,0,1,0-11.36-9.83A57.68,57.68,0,0,0,256,293.16Z" transform="translate(-58.24 0)"/><path class="cls-2" d="M256,263.93a28.41,28.41,0,0,0,26.32-17.65,43.92,43.92,0,1,0-47.18-30.14A28.43,28.43,0,0,0,256,263.93Zm-13.45-28.47a13.29,13.29,0,0,1,.81-4.52,44,44,0,0,0,22.05,14.13,13.45,13.45,0,0,1-22.86-9.61ZM277,173.77a28.92,28.92,0,1,1-28.91,28.92A28.95,28.95,0,0,1,277,173.77Z" transform="translate(-58.24 0)"/><path class="cls-3" d="M446.25,124.28a7.51,7.51,0,0,0,7.51-7.51v-17a38.69,38.69,0,0,0-34.91-38.46l-2.49-16.07a17.65,17.65,0,0,0-17.54-15H385.46a17.65,17.65,0,0,0-17.54,15L365.46,61.1H328.24L312.71,17.3A26,26,0,0,0,288.22,0H218.87a26,26,0,0,0-24.49,17.3L178.85,61.1H164.77V48.49a18.32,18.32,0,0,0-18.3-18.3h-30a18.32,18.32,0,0,0-18.29,18.3V61.1H96.89A38.7,38.7,0,0,0,58.24,99.76V300a38.71,38.71,0,0,0,30.14,37.7v80.11a7.51,7.51,0,0,0,15,0V338.67h52.79a144.35,144.35,0,0,0,18.32,15H125.93a7.51,7.51,0,0,0-7.51,7.51V474.45a7.51,7.51,0,0,0,7.51,7.51H385.07a7.51,7.51,0,0,0,7.51-7.51V361.2a7.51,7.51,0,0,0-7.51-7.51H337.5a144.26,144.26,0,0,0,18.31-15H407.6V489.52a7.47,7.47,0,0,1-7.46,7.46H110.86a7.47,7.47,0,0,1-7.46-7.46V449.83a7.51,7.51,0,0,0-15,0v39.69A22.5,22.5,0,0,0,110.86,512H400.14a22.51,22.51,0,0,0,22.48-22.48V337.93A38.71,38.71,0,0,0,453.76,300V148.77a7.51,7.51,0,1,0-15,0v13.77h-30a7.51,7.51,0,1,0,0,15h30v96H415.81a7.51,7.51,0,1,0,0,15h22.93V300a23.66,23.66,0,0,1-23.63,23.63H369.32a142.9,142.9,0,0,0,30.33-88.18c0-79.21-64.44-143.65-143.65-143.65a142.18,142.18,0,0,0-88.73,30.67,7.51,7.51,0,1,0,9.29,11.8A127.31,127.31,0,0,1,256,106.84,128.63,128.63,0,1,1,127.37,235.46a127.24,127.24,0,0,1,27.76-79.81,7.51,7.51,0,1,0-11.77-9.33,143.48,143.48,0,0,0-.67,177.33H96.89A23.66,23.66,0,0,1,73.26,300V288.6H96.19a7.51,7.51,0,0,0,0-15H73.26v-96h30a7.51,7.51,0,1,0,0-15h-30V99.75A23.66,23.66,0,0,1,96.89,76.12H415.11a23.66,23.66,0,0,1,23.63,23.63v17a7.51,7.51,0,0,0,7.51,7.51ZM294.59,420.55a55.75,55.75,0,0,1,17.75,41c0,1.79-.1,3.57-.26,5.35H199.92c-.16-1.77-.25-3.56-.25-5.35a55.75,55.75,0,0,1,17.75-41,56,56,0,0,0,77.17,0ZM133.44,368.71H201a56.08,56.08,0,0,0,7,40.15,71.71,71.71,0,0,0-23.32,52.74c0,1.78.08,3.56.22,5.34H133.44V368.71Zm244.12,98.23H327.13c.14-1.78.22-3.56.22-5.35A71.69,71.69,0,0,0,304,408.86a55.8,55.8,0,0,0,8.11-29.05,56.4,56.4,0,0,0-1.11-11.1h66.52v98.23Zm-80.95-93.68a42,42,0,0,1,.52,6.55,41.13,41.13,0,1,1-81.73-6.55,143.85,143.85,0,0,0,81.21,0ZM382.77,47.52a2.7,2.7,0,0,1,2.69-2.31h13.36a2.71,2.71,0,0,1,2.7,2.31l2.1,13.58h-23ZM208.53,22.32A11,11,0,0,1,218.87,15h69.35a11,11,0,0,1,10.34,7.3L312.3,61.1H194.79ZM113.24,48.49a3.28,3.28,0,0,1,3.27-3.28h30a3.28,3.28,0,0,1,3.27,3.28V61.1h-36.5V48.49Z" transform="translate(-58.24 0)"/><path class="cls-4" d="M283,30.55H228.55a7.51,7.51,0,0,0,0,15H283a7.51,7.51,0,1,0,0-15Z" transform="translate(-58.24 0)"/><path class="cls-5" d="M109.27,114.56a7.51,7.51,0,1,0,0,15h4.47a7.51,7.51,0,1,0,0-15Z" transform="translate(-58.24 0)"/><path class="cls-6" d="M394.64,89.43a15.31,15.31,0,0,0-15.3,15.3v13.78a15.31,15.31,0,0,0,15.3,15.3h13.78a15.31,15.31,0,0,0,15.3-15.3V104.73a15.31,15.31,0,0,0-15.3-15.3Zm14.06,15.3v13.78a.28.28,0,0,1-.28.28H394.64a.27.27,0,0,1-.28-.28V104.73a.28.28,0,0,1,.28-.28h13.78A.29.29,0,0,1,408.7,104.73Z" transform="translate(-58.24 0)"/></svg>