<?xml version="1.0" encoding="utf-8"?>
<!-- Generator: Adobe Illustrator 23.0.0, SVG Export Plug-In . SVG Version: 6.00 Build 0)  -->
<svg version="1.1" id="Capa_1" xmlns="http://www.w3.org/2000/svg" xmlns:xlink="http://www.w3.org/1999/xlink" x="0px" y="0px"
	 viewBox="0 0 480 480" style="enable-background:new 0 0 480 480;" xml:space="preserve">
<style type="text/css">
	.st0{fill:url(#SVGID_1_);}
	.st1{fill:url(#SVGID_2_);}
	.st2{fill:url(#SVGID_3_);}
	.st3{fill:url(#SVGID_4_);}
	.st4{fill:#9E9E9E;}
	.st5{fill:url(#SVGID_5_);}
	.st6{fill:url(#SVGID_6_);}
	.st7{fill:url(#SVGID_7_);}
	.st8{fill:#7C7C7C;}
	.st9{fill:url(#SVGID_8_);}
</style>
<g>
	<g>
		<linearGradient id="SVGID_1_" gradientUnits="userSpaceOnUse" x1="239.5359" y1="128.7654" x2="408.4641" y2="31.2346">
			<stop  offset="1.274966e-07" style="stop-color:#56B6BD"/>
			<stop  offset="1" style="stop-color:#1C9ABE"/>
		</linearGradient>
		<rect x="216" y="72" class="st0" width="216" height="16"/>
	</g>
</g>
<g>
	<g>
		<linearGradient id="SVGID_2_" gradientUnits="userSpaceOnUse" x1="229.5359" y1="143.4449" x2="338.4641" y2="80.5551">
			<stop  offset="1.274966e-07" style="stop-color:#56B6BD"/>
			<stop  offset="1" style="stop-color:#1C9ABE"/>
		</linearGradient>
		<rect x="216" y="104" class="st1" width="136" height="16"/>
	</g>
</g>
<g>
	<g>
		<linearGradient id="SVGID_3_" gradientUnits="userSpaceOnUse" x1="229.5359" y1="175.4449" x2="338.4641" y2="112.5551">
			<stop  offset="1.274966e-07" style="stop-color:#56B6BD"/>
			<stop  offset="1" style="stop-color:#1C9ABE"/>
		</linearGradient>
		<rect x="216" y="136" class="st2" width="136" height="16"/>
	</g>
</g>
<g>
	<g>
		<linearGradient id="SVGID_4_" gradientUnits="userSpaceOnUse" x1="295.5359" y1="82.909" x2="416.4641" y2="13.091">
			<stop  offset="1.274966e-07" style="stop-color:#56B6BD"/>
			<stop  offset="1" style="stop-color:#1C9ABE"/>
		</linearGradient>
		<rect x="280" y="40" class="st3" width="152" height="16"/>
	</g>
</g>
<g>
	<g>
		<rect x="248" y="40" class="st4" width="16" height="16"/>
	</g>
</g>
<g>
	<g>
		<rect x="232" y="320" class="st4" width="16" height="16"/>
	</g>
</g>
<g>
	<g>
		<linearGradient id="SVGID_5_" gradientUnits="userSpaceOnUse" x1="107.7198" y1="72.5256" x2="135.3567" y2="56.5695">
			<stop  offset="1.274966e-07" style="stop-color:#56B6BD"/>
			<stop  offset="1" style="stop-color:#1C9ABE"/>
		</linearGradient>
		<path class="st5" d="M133.7,53.7l-11.3-11.3l-16,16c-3.1,3.1-3.1,8.2,0,11.3l16,16l11.3-11.3L123.3,64L133.7,53.7z"/>
	</g>
</g>
<g>
	<g>
		<linearGradient id="SVGID_6_" gradientUnits="userSpaceOnUse" x1="168.7433" y1="71.4305" x2="196.3656" y2="55.4828">
			<stop  offset="1.274966e-07" style="stop-color:#56B6BD"/>
			<stop  offset="1" style="stop-color:#1C9ABE"/>
		</linearGradient>
		<path class="st6" d="M197.7,58.3l-16-16l-11.3,11.3L180.7,64l-10.3,10.3l11.3,11.3l16-16C200.8,66.5,200.8,61.5,197.7,58.3z"/>
	</g>
</g>
<g>
	<g>
		<linearGradient id="SVGID_7_" gradientUnits="userSpaceOnUse" x1="131.0118" y1="76.1072" x2="172.9976" y2="51.8666">
			<stop  offset="1.274966e-07" style="stop-color:#56B6BD"/>
			<stop  offset="1" style="stop-color:#1C9ABE"/>
		</linearGradient>
		<polygon class="st7" points="136.4,85.5 152.4,37.5 167.6,42.5 151.6,90.5 		"/>
	</g>
</g>
<g>
	<g>
		<polygon class="st8" points="416,248 416,184 400,184 400,248 384,248 384,168 368,168 368,248 352,248 352,208 336,208 336,248 
			320,248 320,200 304,200 304,248 288,248 288,216 272,216 272,248 256,248 256,264 432,264 432,248 		"/>
	</g>
</g>
<g>
	<g>
		<linearGradient id="SVGID_8_" gradientUnits="userSpaceOnUse" x1="1.8659" y1="368.7129" x2="498.912" y2="81.7432">
			<stop  offset="1.274966e-07" style="stop-color:#56B9BD"/>
			<stop  offset="1" style="stop-color:#1C9ABE"/>
		</linearGradient>
		<path class="st9" d="M424,0H56C29.5,0,8,21.5,8,48v157v0.1V296v24c0,26.5,21.5,48,48,48h99.1l-32,64H80c-13.3,0-24,10.7-24,24
			s10.7,24,24,24h320c13.3,0,24-10.7,24-24s-10.7-24-24-24h-43.1l-32-64H424c26.5,0,48-21.5,48-48V48C472,21.5,450.5,0,424,0z
			 M24,112.6l18.2,21.6c1.5,1.8,3.8,2.9,6.1,2.9h24.5c2.4,0,4.6-1,6.1-2.9l18.2-21.6l18,5.8l2,28.2c0.2,2.4,1.4,4.5,3.3,5.9
			l19.8,14.4c1.9,1.4,4.3,1.9,6.6,1.3l27.5-6.8l11.1,15.3l-15,24c-1.2,2-1.5,4.5-0.8,6.7l7.6,23.3c0.7,2.2,2.4,4.1,4.6,4.9
			l26.2,10.6v18.9l-26.2,10.6c-2.2,0.9-3.9,2.7-4.6,5l-2.4,7.3h-46.1c17.9-37.5,2-82.5-35.5-100.4c-22-10.5-47.8-9.7-69.2,2.2
			L24,112.6L24,112.6z M24,208.8c25.9-20.2,63.2-15.6,83.4,10.3c15.6,20,16.8,47.6,3,68.9H24V208.8z M400,448c4.4,0,8,3.6,8,8
			s-3.6,8-8,8H80c-4.4,0-8-3.6-8-8s3.6-8,8-8H400z M339.1,432H140.9l32-64H307L339.1,432z M456,320c0,17.7-14.3,32-32,32H56
			c-17.7,0-32-14.3-32-32v-16h90.6h0.1H456V320z M456,288H194l25-10.1c3-1.2,5-4.2,5-7.4v-29.7c0-3.3-2-6.2-5-7.4l-27.8-11.2
			l-5.3-16.2l15.9-25.4c1.7-2.8,1.6-6.3-0.3-8.9l-17.4-24c-1.9-2.6-5.2-3.8-8.4-3.1l-29.1,7.2l-13.7-10l-2.1-29.8
			c-0.2-3.3-2.4-6-5.5-7L97,95.7c-3.1-1-6.5,0-8.6,2.5l-19.3,22.9h-17l-19.3-23c-2.1-2.5-5.5-3.5-8.6-2.5L24,95.7V48
			c0-17.7,14.3-32,32-32h368c17.7,0,32,14.3,32,32V288z"/>
	</g>
</g>
</svg>
