<svg id="Capa_1" data-name="Capa 1" xmlns="http://www.w3.org/2000/svg" xmlns:xlink="http://www.w3.org/1999/xlink" viewBox="0 0 478.88 512"><defs><style>.cls-1{fill:url(#linear-gradient);}.cls-2{fill:url(#linear-gradient-2);}.cls-3{fill:#999;}.cls-4{fill:url(#linear-gradient-3);}</style><linearGradient id="linear-gradient" x1="47.08" y1="391.61" x2="525.69" y2="115.28" gradientUnits="userSpaceOnUse"><stop offset="0" stop-color="#57b9bd"/><stop offset="1" stop-color="#1c9abe"/></linearGradient><linearGradient id="linear-gradient-2" x1="368.03" y1="420.53" x2="554.71" y2="312.76" xlink:href="#linear-gradient"/><linearGradient id="linear-gradient-3" x1="271.26" y1="413.38" x2="414.71" y2="330.56" xlink:href="#linear-gradient"/></defs><title>writing</title><path class="cls-1" d="M454.81,33.13h-9.07V24.07a24.07,24.07,0,1,0-48.13,0v9.06h-34.7V24.07a24.07,24.07,0,0,0-48.14,0v9.06h-34.7V24.07a24.07,24.07,0,1,0-48.13,0v9.06h-34.7V24.07a24.07,24.07,0,1,0-48.13,0v9.06H140A40.68,40.68,0,0,0,99.41,73.77V257.3L81.06,239a24.08,24.08,0,0,0-34,0L23.6,262.39a24.08,24.08,0,0,0,0,34l75.81,75.81v99.14A40.67,40.67,0,0,0,140,512H395.17a7.5,7.5,0,1,0,0-15H140a25.66,25.66,0,0,1-25.63-25.63V387.23l61.18,61.19.56.5.4.3a1.33,1.33,0,0,1,.19.14c.17.11.35.21.53.31l.1.06.57.27.09,0,.57.21.12,0a5.54,5.54,0,0,0,.55.14l.17,0,.54.08.18,0,.73,0h43.76l9.51,9.52a7.5,7.5,0,0,0,10.61-10.61L235.25,440V396.26c0-.25,0-.49,0-.74l0-.16c0-.19-.05-.38-.08-.57s0-.09,0-.14-.08-.38-.14-.57a.42.42,0,0,0,0-.1,5.89,5.89,0,0,0-.21-.59l0-.06a5.5,5.5,0,0,0-.28-.6s0-.05,0-.08c-.11-.19-.21-.37-.33-.55a1.77,1.77,0,0,1-.12-.17c-.11-.14-.21-.29-.32-.42s-.33-.38-.5-.56l-61.19-61.19H430a7.5,7.5,0,1,0,0-15H164.89a7.48,7.48,0,0,0-5.55,2.47L114.41,272.3V131h366v51.15a7.5,7.5,0,0,0,15,0V73.77a40.68,40.68,0,0,0-40.63-40.64ZM220.25,435.61H199l21.25-21.25ZM62.94,314.55l12.82-12.82,118,118L180.9,432.51Zm141.38,94.53-118-118L99.19,278.3l118,118ZM34.2,273l23.43-23.43a9.1,9.1,0,0,1,12.83,0l18.12,18.13L52.33,303.94,34.2,285.81A9.08,9.08,0,0,1,34.2,273ZM421.67,15a9.08,9.08,0,0,1,9.07,9.07V57.2a9.07,9.07,0,1,1-18.13,0V40.64h0V24.07A9.08,9.08,0,0,1,421.67,15Zm-82.83,0a9.08,9.08,0,0,1,9.07,9.07V57.2a9.07,9.07,0,0,1-18.14,0V40.64h0V24.07A9.08,9.08,0,0,1,338.84,15Zm-91.9,9.07a9.07,9.07,0,1,1,18.13,0V40.62h0V57.2a9.07,9.07,0,1,1-18.13,0ZM173.17,15a9.08,9.08,0,0,1,9.07,9.07V57.2a9.07,9.07,0,1,1-18.13,0V24.07A9.07,9.07,0,0,1,173.17,15ZM114.41,116V73.77A25.66,25.66,0,0,1,140,48.13h9.07V57.2a24.07,24.07,0,1,0,48.13,0V48.13h34.7V57.2a24.07,24.07,0,1,0,48.13,0V48.13h34.7V57.2a24.07,24.07,0,0,0,48.14,0V48.13h34.7V57.2a24.07,24.07,0,1,0,48.13,0V48.13h9.07a25.66,25.66,0,0,1,25.63,25.64V116Z" transform="translate(-16.56 0)"/><path class="cls-2" d="M487.94,204.62a7.5,7.5,0,0,0-7.5,7.5V471.37A25.66,25.66,0,0,1,454.81,497H425.17a7.5,7.5,0,0,0,0,15h29.64a40.68,40.68,0,0,0,40.63-40.63V212.12a7.5,7.5,0,0,0-7.5-7.5Z" transform="translate(-16.56 0)"/><path class="cls-3" d="M164.89,180.67H430a7.5,7.5,0,0,0,0-15H164.89a7.5,7.5,0,0,0,0,15Z" transform="translate(-16.56 0)"/><path class="cls-3" d="M164.89,230.37H430a7.5,7.5,0,0,0,0-15H164.89a7.5,7.5,0,0,0,0,15Z" transform="translate(-16.56 0)"/><path class="cls-3" d="M164.89,280.07H430a7.5,7.5,0,0,0,0-15H164.89a7.5,7.5,0,0,0,0,15Z" transform="translate(-16.56 0)"/><path class="cls-4" d="M437.46,372a7.5,7.5,0,0,0-7.5-7.5H256a7.5,7.5,0,0,0,0,15H430A7.5,7.5,0,0,0,437.46,372Z" transform="translate(-16.56 0)"/></svg>