<?xml version="1.0" encoding="utf-8"?>
<!-- Generator: Adobe Illustrator 23.0.0, SVG Export Plug-In . SVG Version: 6.00 Build 0)  -->
<svg version="1.1" id="Capa_1" xmlns="http://www.w3.org/2000/svg" xmlns:xlink="http://www.w3.org/1999/xlink" x="0px" y="0px"
	 viewBox="0 0 512 512" style="enable-background:new 0 0 512 512;" xml:space="preserve">
<style type="text/css">
	.st0{fill:#4CB9E0;}
</style>
<g>
	<g>
		<path class="st0" d="M510.9,500.5L364.6,263.1c-5.1-8.2-13.8-13.1-23.5-13.1c-9.6,0-18.4,4.9-23.5,13.1l-10.1,16.4L246,179.4
			c-3.7-6-9.4-10.2-16-12.1v-61.5h30.1c4.1,0,7.5-3.4,7.5-7.5c0-4.1-3.4-7.5-7.5-7.5H230V30.6h94.7l-14.3,26.5
			c-1.2,2.2-1.2,4.9,0,7.1l14.3,26.5h-34.5c-4.1,0-7.5,3.4-7.5,7.5c0,4.1,3.4,7.5,7.5,7.5h47.1c2.6,0,5.1-1.4,6.5-3.7
			c1.4-2.3,1.4-5.1,0.2-7.4l-18.4-34.1l18.4-34.1c1.3-2.3,1.2-5.1-0.2-7.4c-1.4-2.3-3.8-3.7-6.5-3.7H230V7.5c0-4.1-3.4-7.5-7.5-7.5
			s-7.5,3.4-7.5,7.5v159.8c-6.6,1.8-12.3,6.1-16,12.1L58.6,407.3c-2.2,3.5-1.1,8.2,2.5,10.3c1.2,0.8,2.6,1.1,3.9,1.1
			c2.5,0,5-1.3,6.4-3.6l90.5-146.8l24.7,28.9c1.4,1.6,3.4,2.6,5.6,2.6c2.1,0,4.2-0.8,5.7-2.4l24.7-26.7l24.7,26.7
			c1.4,1.5,3.4,2.4,5.5,2.4c0,0,0.1,0,0.1,0c2.1,0,4.2-1,5.6-2.6l24.7-28.9l43.7,70.9c2.2,3.5,6.8,4.6,10.3,2.5
			c3.5-2.2,4.6-6.8,2.5-10.3l-23.1-37.5l14.1-22.8c2.3-3.8,6.2-6,10.7-6c4.4,0,8.3,2.2,10.7,6L491,497l-49.4,0l-86.3-140
			c-2.2-3.5-6.8-4.6-10.3-2.5c-3.5,2.2-4.6,6.8-2.5,10.3L424,497H21l34.6-56.2c2.2-3.5,1.1-8.2-2.5-10.3c-3.5-2.2-8.2-1.1-10.3,2.5
			L1.1,500.5c-1.4,2.3-1.5,5.2-0.2,7.6c1.3,2.4,3.8,3.9,6.6,3.9h429.9l67.1,0c2.7,0,5.2-1.5,6.6-3.9
			C512.4,505.8,512.3,502.9,510.9,500.5L510.9,500.5z M252.5,281.1L228,254.6c-1.4-1.5-3.4-2.4-5.5-2.4c-2.1,0-4.1,0.9-5.5,2.4
			l-24.5,26.4l-22.3-26.1l41.7-67.6c2.3-3.8,6.2-6,10.7-6c4.5,0,8.4,2.2,10.7,6l41.7,67.6L252.5,281.1z"/>
	</g>
</g>
</svg>
