<?xml version="1.0" encoding="utf-8"?>
<!-- Generator: Adobe Illustrator 23.0.0, SVG Export Plug-In . SVG Version: 6.00 Build 0)  -->
<svg version="1.1" id="Layer_1" xmlns="http://www.w3.org/2000/svg" xmlns:xlink="http://www.w3.org/1999/xlink" x="0px" y="0px"
	 viewBox="0 0 512 512" style="enable-background:new 0 0 512 512;" xml:space="preserve">
<style type="text/css">
	.st0{fill:url(#SVGID_1_);}
	.st1{fill:url(#SVGID_2_);}
	.st2{fill:url(#SVGID_3_);}
	.st3{fill:#A4A5A5;}
</style>
<g>
	<linearGradient id="SVGID_1_" gradientUnits="userSpaceOnUse" x1="36.7787" y1="405.1956" x2="424.7059" y2="181.2258">
		<stop  offset="9.090648e-03" style="stop-color:#57BDBD"/>
		<stop  offset="1" style="stop-color:#1C9ABE"/>
	</linearGradient>
	<path class="st0" d="M320.9,331.5c0.9-1.5,1.8-3,2.8-4.5c41.6-68.8,62.5-129,62.2-178.9C385.5,76.4,327,18.5,255.3,18.9
		c-71.2,0.4-128.7,58-129.2,129.1c-0.3,49.9,20.6,110.1,62.2,178.9c0.9,1.5,1.8,3,2.8,4.5c-87.5,10.8-145.5,42.1-145.5,79.2
		c0,46.6,92.4,83.1,210.4,83.1s210.4-36.5,210.4-83.1C466.4,373.5,408.4,342.3,320.9,331.5L320.9,331.5z M140.1,148.1
		c-0.4-64,51.2-116.1,115.2-116.5s116.1,51.2,116.5,115.2c0,0.5,0,0.9,0,1.4c0.6,99.4-92.4,222.1-115.9,251.5
		C232.5,370.2,139.5,247.6,140.1,148.1L140.1,148.1z M256,479.8c-117.5,0-196.4-35.7-196.4-69.1c0-29.6,58.5-57.1,139.7-66.1
		c15.7,24.5,32.8,48.1,51.3,70.6c2.5,2.9,6.9,3.3,9.9,0.8c0.3-0.2,0.6-0.5,0.8-0.8c18.5-22.5,35.6-46.1,51.3-70.6
		c81.2,8.9,139.7,36.5,139.7,66.1C452.4,444,373.5,479.8,256,479.8L256,479.8z"/>
	<linearGradient id="SVGID_2_" gradientUnits="userSpaceOnUse" x1="132.3642" y1="452.5203" x2="190.2948" y2="419.074">
		<stop  offset="9.090648e-03" style="stop-color:#57BDBD"/>
		<stop  offset="1" style="stop-color:#1C9ABE"/>
	</linearGradient>
	<path class="st1" d="M198.8,439.2c-31.1-4-56-11-70.2-19.7c-3.3-2.1-7.6-1.1-9.7,2.1c-2.1,3.3-1.1,7.6,2.1,9.7
		c0.1,0,0.1,0.1,0.2,0.1c15.9,9.7,42.8,17.4,75.7,21.7c0.3,0,0.6,0.1,0.9,0.1c3.9,0,7-3.2,7-7C204.8,442.6,202.2,439.7,198.8,439.2z
		"/>
	<linearGradient id="SVGID_3_" gradientUnits="userSpaceOnUse" x1="235.4226" y1="459.5057" x2="270.1878" y2="439.4341">
		<stop  offset="9.090648e-03" style="stop-color:#57BDBD"/>
		<stop  offset="1" style="stop-color:#1C9ABE"/>
	</linearGradient>
	<path class="st2" d="M267.8,442.6c-9.8,0.2-19.9,0.2-29.8-0.2c-3.9-0.1-7.1,2.9-7.3,6.7c-0.1,3.9,2.9,7.1,6.7,7.3l0,0
		c6.2,0.2,12.4,0.3,18.6,0.3c4.1,0,8.1,0,12.1-0.1c3.9-0.1,6.9-3.3,6.8-7.2c0-3.8-3.2-6.9-7-6.8
		C267.9,442.6,267.8,442.6,267.8,442.6L267.8,442.6z"/>
	<path class="st3" d="M315.1,148.1c0-32.6-26.5-59.1-59.1-59.1s-59.1,26.5-59.1,59.1c0,32.6,26.5,59.1,59.1,59.1
		C288.6,207.2,315.1,180.7,315.1,148.1z M210.9,148.1c0-24.9,20.2-45.1,45.1-45.1s45.1,20.2,45.1,45.1c0,24.9-20.2,45.1-45.1,45.1
		C231.1,193.2,210.9,173,210.9,148.1z"/>
</g>
</svg>
