<?xml version="1.0" encoding="utf-8"?>
<!-- Generator: Adobe Illustrator 23.0.0, SVG Export Plug-In . SVG Version: 6.00 Build 0)  -->
<svg version="1.1" id="Capa_1" xmlns="http://www.w3.org/2000/svg" xmlns:xlink="http://www.w3.org/1999/xlink" x="0px" y="0px"
	 viewBox="0 0 512 512" style="enable-background:new 0 0 512 512;" xml:space="preserve">
<style type="text/css">
	.st0{fill:#7C7C7C;}
	.st1{fill:url(#SVGID_1_);}
	.st2{fill:url(#SVGID_2_);}
	.st3{fill:url(#SVGID_3_);}
</style>
<g>
	<path class="st0" d="M278.4,482.5c-4.2,0-7.5-3.4-7.5-7.5v-20c0-2.9-2.3-5.2-5.2-5.2h-20.2c-2.9,0-5.2,2.3-5.2,5.2v20
		c0,4.2-3.4,7.5-7.5,7.5s-7.5-3.4-7.5-7.5v-20c0-11.2,9.1-20.3,20.3-20.3h20.2c11.2,0,20.3,9.1,20.3,20.3v20
		C285.9,479.2,282.5,482.5,278.4,482.5L278.4,482.5z"/>
	<g>
		<linearGradient id="SVGID_1_" gradientUnits="userSpaceOnUse" x1="135.9134" y1="390.6364" x2="365.8502" y2="257.8824">
			<stop  offset="0" style="stop-color:#57C5BD"/>
			<stop  offset="1" style="stop-color:#1C9ABE"/>
		</linearGradient>
		<path class="st1" d="M327.9,207.1c-2.5-3.3-7.2-4-10.5-1.6c-3.3,2.5-4,7.2-1.6,10.5l37.4,50.5c4.2,5.6,3.9,14.1-0.7,19.3l-40.3,46
			H198.7l-40.3-46c-4.5-5.2-4.8-13.7-0.7-19.3L232,166.3v57.2c-9.4,7.2-14.9,18.3-14.9,30.4c0,21.2,17.2,38.4,38.4,38.4
			s38.4-17.2,38.4-38.4c0-11.5-5.1-22.3-13.9-29.6v-56.6l16.5,22.3c2.5,3.3,7.2,4,10.5,1.6c3.3-2.5,4-7.2,1.6-10.5l-32.3-43.7
			c-5.1-6.9-12.7-10.8-20.8-10.8c-8.1,0-15.7,3.9-20.8,10.8l-89.1,120.3c-8.4,11.3-7.7,27.7,1.5,38.2l33.6,38.4
			c-8.4,3.9-14.2,12.4-14.2,22.3v35.9c0,11,7.3,20.3,17.3,23.5l2.1,59.4c0.1,4.1,3.5,7.3,7.5,7.3c0.1,0,0.2,0,0.3,0
			c4.2-0.1,7.4-3.6,7.3-7.8l-2-57.8h114.3l-2,57.8c-0.1,4.2,3.1,7.6,7.3,7.8c0.1,0,0.2,0,0.3,0c4,0,7.4-3.2,7.5-7.3l2.1-59.7
			c9.5-3.4,16.2-12.5,16.2-23.1v-35.9c0-9.9-5.8-18.4-14.2-22.3l33.6-38.4c9.2-10.5,9.8-26.9,1.5-38.2L327.9,207.1z M255.5,141.6
			c3.4,0,6.4,1.7,8.7,4.7l0.7,1V228c0,2.5,1.3,4.9,3.4,6.3c6.6,4.3,10.5,11.6,10.5,19.5c0,12.9-10.5,23.3-23.3,23.3
			s-23.3-10.5-23.3-23.3c0-8.2,4.2-15.7,11.3-20c2.3-1.4,3.6-3.8,3.6-6.4V146C249.3,143.2,252.3,141.6,255.5,141.6L255.5,141.6z
			 M329.4,392.4c0,5.2-4.3,9.5-9.5,9.5H191.1c-5.2,0-9.5-4.3-9.5-9.5v-35.9c0-5.2,4.3-9.5,9.5-9.5H320c5.2,0,9.5,4.3,9.5,9.5v35.9
			H329.4z"/>
		<linearGradient id="SVGID_2_" gradientUnits="userSpaceOnUse" x1="58.3406" y1="229.7985" x2="149.8533" y2="176.9636">
			<stop  offset="0" style="stop-color:#57C5BD"/>
			<stop  offset="1" style="stop-color:#1C9ABE"/>
		</linearGradient>
		<path class="st2" d="M105.6,209.4c1-23.9,7.6-47.2,19.4-68c2.1-3.6,0.8-8.2-2.8-10.3c-3.6-2.1-8.2-0.8-10.3,2.8
			c-13,23-20.3,48.9-21.4,75.3c-13,3.3-22.6,15.1-22.6,29.1c0,16.6,13.5,30.1,30.1,30.1s30.1-13.5,30.1-30.1
			C127.9,224.6,118.4,212.8,105.6,209.4L105.6,209.4z M97.9,253.5c-8.3,0-15-6.7-15-15s6.7-15,15-15s15,6.7,15,15
			S106.1,253.5,97.9,253.5z"/>
		<linearGradient id="SVGID_3_" gradientUnits="userSpaceOnUse" x1="86.788" y1="224.1837" x2="484.9474" y2="-5.6937">
			<stop  offset="0" style="stop-color:#57C5BD"/>
			<stop  offset="1" style="stop-color:#1C9ABE"/>
		</linearGradient>
		<path class="st3" d="M496,29.5h-24.2c-8.8,0-16,7.2-16,16V50H284.1v-4.6c0-8.8-7.2-16-16-16h-24.2c-8.8,0-16,7.2-16,16V50H56.1
			v-4.6c0-8.8-7.2-16-16-16H16c-8.8,0-16,7.2-16,16v24.2c0,8.8,7.2,16,16,16h24.2c8.8,0,16-7.2,16-16V65H187
			c-20.9,9.6-39.8,23.6-55.3,41.2c-2.7,3.1-2.4,7.9,0.7,10.6c1.4,1.3,3.2,1.9,5,1.9c2.1,0,4.2-0.9,5.7-2.6
			c22.3-25.3,52.2-42.3,85-48.5v1.9c0,8.8,7.2,16,16,16h24.2c8.8,0,16-7.2,16-16v-1.9c68.4,12.9,119.5,71.9,122.4,141.7
			c-12.9,3.4-22.4,15.1-22.4,29.1c0,16.6,13.5,30.1,30.1,30.1s30.1-13.5,30.1-30.1c0-14-9.6-25.8-22.6-29.1
			C419.5,145.9,381,90.6,325.4,65h130.8v4.6c0,8.8,7.2,16,16,16H496c8.8,0,16-7.2,16-16V45.4C512,36.6,504.8,29.5,496,29.5L496,29.5
			z M41.1,69.6c0,0.5-0.4,0.9-0.9,0.9H16c-0.5,0-0.9-0.4-0.9-0.9V45.4c0-0.5,0.4-0.9,0.9-0.9h24.2c0.5,0,0.9,0.4,0.9,0.9
			C41.1,45.4,41.1,69.6,41.1,69.6z M429.1,238.5c0,8.3-6.7,15-15,15s-15-6.7-15-15s6.7-15,15-15S429.1,230.2,429.1,238.5z M269,69.6
			c0,0.5-0.4,0.9-0.9,0.9h-24.2c-0.5,0-0.9-0.4-0.9-0.9V45.4c0-0.5,0.4-0.9,0.9-0.9h24.2c0.5,0,0.9,0.4,0.9,0.9V69.6z M496.9,69.6
			c0,0.5-0.4,0.9-0.9,0.9h-24.2c-0.5,0-0.9-0.4-0.9-0.9V45.4c0-0.5,0.4-0.9,0.9-0.9H496c0.5,0,0.9,0.4,0.9,0.9V69.6z"/>
	</g>
</g>
</svg>
