<svg id="_30" data-name="30" xmlns="http://www.w3.org/2000/svg" xmlns:xlink="http://www.w3.org/1999/xlink" viewBox="0 0 496 496.19"><defs><style>.cls-1{fill:url(#linear-gradient);}.cls-2{fill:#8e8e8e;}.cls-3{fill:url(#linear-gradient-2);}.cls-4{fill:url(#linear-gradient-3);}.cls-5{fill:url(#linear-gradient-4);}.cls-6{fill:url(#linear-gradient-5);}</style><linearGradient id="linear-gradient" x1="241.89" y1="376.97" x2="483.72" y2="237.35" gradientUnits="userSpaceOnUse"><stop offset="0" stop-color="#57c7bd"/><stop offset="1" stop-color="#1c9abe"/></linearGradient><linearGradient id="linear-gradient-2" x1="43.22" y1="444" x2="84.78" y2="420" xlink:href="#linear-gradient"/><linearGradient id="linear-gradient-3" x1="107.22" y1="444" x2="148.78" y2="420" xlink:href="#linear-gradient"/><linearGradient id="linear-gradient-4" x1="171.22" y1="444" x2="212.78" y2="420" xlink:href="#linear-gradient"/><linearGradient id="linear-gradient-5" x1="-15.3" y1="430.06" x2="493.7" y2="136.19" xlink:href="#linear-gradient"/></defs><title>qa</title><path class="cls-1" d="M341.14,181a287.13,287.13,0,0,1-102.28,35.09l-6.86,1V316.5c0,72.61,48.49,136.44,117.91,155.22l2.09.57,2.09-.57C423.51,452.94,472,389.11,472,316.5V217.06l-6.86-1A287.2,287.2,0,0,1,362.86,181L352,174.78ZM456,230.86v85.63c0,64.67-42.66,121.6-104,139.2-61.34-17.6-104-74.53-104-139.2V230.86a303.15,303.15,0,0,0,101.09-36l2.91-1.66,2.92,1.66a303,303,0,0,0,101.08,36Z" transform="translate(-8 -8)"/><path class="cls-2" d="M293.66,330.34l-11.32,11.32L320,379.31,437.66,261.66l-11.32-11.32L320,356.69Z" transform="translate(-8 -8)"/><path class="cls-3" d="M64,408a24,24,0,1,0,24,24A24,24,0,0,0,64,408Zm0,32a8,8,0,1,1,8-8A8,8,0,0,1,64,440Z" transform="translate(-8 -8)"/><path class="cls-4" d="M128,408a24,24,0,1,0,24,24A24,24,0,0,0,128,408Zm0,32a8,8,0,1,1,8-8A8,8,0,0,1,128,440Z" transform="translate(-8 -8)"/><path class="cls-5" d="M192,408a24,24,0,1,0,24,24A24,24,0,0,0,192,408Zm0,32a8,8,0,1,1,8-8A8,8,0,0,1,192,440Z" transform="translate(-8 -8)"/><path class="cls-6" d="M392,72a110.47,110.47,0,0,0-23.8,2.63,127.78,127.78,0,0,0-224.4,0A110.47,110.47,0,0,0,120,72,111.83,111.83,0,0,0,11.52,211.67,23.8,23.8,0,0,0,8,224V464a24,24,0,0,0,24,24H305.74a195.6,195.6,0,0,0,44.52,15.82l1.74.37,1.74-.38C442.21,484.15,504,407.12,504,316.49V184A112.12,112.12,0,0,0,392,72ZM120,88a96,96,0,0,1,25.86,3.63l6.44,1.81,2.92-6a111.79,111.79,0,0,1,201.56,0l2.92,6,6.44-1.81A95.75,95.75,0,0,1,488,183.14a316.94,316.94,0,0,1-131.76-45.92L352,134.56l-4.24,2.66A316.93,316.93,0,0,1,212.1,183.54L200,184.77V200H32a23.61,23.61,0,0,0-6.44,1A95.77,95.77,0,0,1,120,88Zm80,176H184V232H168v32H152V232H136v32H120V216h80ZM32,472a8,8,0,0,1-8-8V224a8,8,0,0,1,8-8h72v48a16,16,0,0,0,16,16h80v36.49A190.64,190.64,0,0,0,279.26,472ZM488,316.49C488,399,432.17,469.17,352,487.8,271.83,469.17,216,399,216,316.49V199.22a332.91,332.91,0,0,0,136-45.83,332.81,332.81,0,0,0,136,45.83Z" transform="translate(-8 -8)"/></svg>